<svg width="96" height="96" xmlns="http://www.w3.org/2000/svg">

 <g>
  <title>background</title>
  <rect fill="none" id="canvas_background" height="402" width="582" y="-1" x="-1"/>
 </g>
 <g>
  <title>Layer 1</title>
  <path fill="#ffffff" id="svg_1" d="m48,4c-24.3,0 -44,19.699 -44,44s19.7,44 44,44s44,-19.699 44,-44s-19.7,-44 -44,-44zm0,80c-19.882,0 -36,-16.118 -36,-36s16.118,-36 36,-36s36,16.118 36,36s-16.118,36 -36,36z"/>
  <path fill="#ffffff" id="svg_2" d="m64,44l-12,0l0,-12c0,-2.209 -1.791,-4 -4,-4s-4,1.791 -4,4l0,12l-12,0c-2.209,0 -4,1.791 -4,4s1.791,4 4,4l12,0l0,12c0,2.209 1.791,4 4,4s4,-1.791 4,-4l0,-12l12,0c2.209,0 4,-1.791 4,-4s-68,-48 -4,-4z"/>
 </g>
</svg>