<svg width="64" height="64" xmlns="http://www.w3.org/2000/svg">
 <g>
  <title>background</title>
  <rect x="-1" y="-1" width="66" height="66" id="canvas_background" fill="none"/>
 </g>

 <g>
  <title>Layer 1</title>
  <path d="m56.12465,40.82984l0,-12c0,-13.255 -10.745,-24 -24,-24s-24,10.745 -24,24l0,12l-7.011,7.011c-0.229,0.229 -0.333,0.556 -0.279,0.875c0.055,0.32 0.261,0.593 0.553,0.733c20.491,9.841 40.982,9.841 61.473,0c0.292,-0.14 0.498,-0.414 0.553,-0.733c0.055,-0.32 -0.049,-0.646 -0.278,-0.875l-7.011,-7.011z" fill="#ffffff" id="svg_4"/>
  <path d="m7.51446,29.64342l0,12l-7.011,7.011c-0.229,0.229 -0.333,0.555 -0.279,0.875c0.055,0.32 0.261,0.593 0.553,0.733c10.246,4.921 20.492,7.381 30.737,7.381l0,-52c-13.255,0 -24,10.745 -24,24z" fill="#ffffff" id="svg_6"/>
  <rect height="4" width="48" x="7.514461" y="37.643421" fill="#cccccc" id="svg_8"/>
  <path d="m59.52646,34.24742l-4.84,1.823l2.133,-4.711c0.455,-1.006 0.009,-2.191 -0.997,-2.647c-1.006,-0.456 -2.191,-0.009 -2.647,0.997l-2.133,4.711l-1.823,-4.84c-0.389,-1.034 -1.543,-1.556 -2.577,-1.167c-1.034,0.389 -1.556,1.543 -1.167,2.577l1.823,4.84l-4.711,-2.133c-1.006,-0.456 -2.191,-0.009 -2.647,0.997c-0.456,1.006 -0.009,2.191 0.997,2.647l4.711,2.133l-4.84,1.823c-1.034,0.389 -1.556,1.543 -1.167,2.577s1.543,1.556 2.577,1.167l4.84,-1.823l-2.133,4.711c-0.456,1.006 -0.009,2.191 0.997,2.647c1.006,0.456 2.191,0.009 2.647,-0.997l2.133,-4.711l1.823,4.84c0.389,1.034 1.543,1.556 2.577,1.167c1.034,-0.389 1.556,-1.543 1.167,-2.577l-1.823,-4.84l4.711,2.133c1.006,0.456 2.191,0.009 2.647,-0.997c0.455,-1.006 0.009,-2.191 -0.997,-2.647l-4.711,-2.133l4.84,-1.823c1.034,-0.389 1.556,-1.543 1.167,-2.577c-0.39,-1.034 -1.543,-1.557 -2.577,-1.167z" fill="#cccccc" id="svg_10"/>
  <circle cx="50.873461" cy="39.643421" r="3" fill="#ffffff" id="svg_12"/>
  <rect height="4" width="24" x="7.514461" y="37.643421" fill="#cccccc" id="svg_14"/>
 </g>
</svg>