<svg width="64" height="64" xmlns="http://www.w3.org/2000/svg">

 <g>
  <title>background</title>
  <rect fill="none" id="canvas_background" height="66" width="66" y="-1" x="-1"/>
 </g>
 <g>
  <title>Layer 1</title>
  <path id="svg_4" fill="#ffffff" d="m56.124649,40.829837l0,-12c0,-13.255 -10.745,-24 -24,-24s-24,10.745 -24,24l0,12l-7.011,7.011c-0.229,0.229 -0.333,0.556 -0.279,0.875c0.055,0.32 0.261,0.593 0.553,0.733c20.491,9.841 40.982,9.841 61.473,0c0.292,-0.14 0.498,-0.414 0.553,-0.733c0.055,-0.32 -0.049,-0.646 -0.278,-0.875l-7.011,-7.011z"/>
  <path id="svg_6" fill="#ffffff" d="m7.514461,29.643421l0,12l-7.011,7.011c-0.229,0.229 -0.333,0.555 -0.279,0.875c0.055,0.32 0.261,0.593 0.553,0.733c10.246,4.921 20.492,7.381 30.737,7.381l0,-52c-13.255,0 -24,10.745 -24,24z"/>
  <rect id="svg_8" fill="#e5e5e5" y="37.643421" x="7.514461" width="48" height="4"/>
  <path id="svg_10" fill="#e5e5e5" d="m59.526461,34.247421l-4.84,1.823l2.133,-4.711c0.455,-1.006 0.009,-2.191 -0.997,-2.647c-1.006,-0.456 -2.191,-0.009 -2.647,0.997l-2.133,4.711l-1.823,-4.84c-0.389,-1.034 -1.543,-1.556 -2.577,-1.167c-1.034,0.389 -1.556,1.543 -1.167,2.577l1.823,4.84l-4.711,-2.133c-1.006,-0.456 -2.191,-0.009 -2.647,0.997c-0.456,1.006 -0.009,2.191 0.997,2.647l4.711,2.133l-4.84,1.823c-1.034,0.389 -1.556,1.543 -1.167,2.577s1.543,1.556 2.577,1.167l4.84,-1.823l-2.133,4.711c-0.456,1.006 -0.009,2.191 0.997,2.647c1.006,0.456 2.191,0.009 2.647,-0.997l2.133,-4.711l1.823,4.84c0.389,1.034 1.543,1.556 2.577,1.167c1.034,-0.389 1.556,-1.543 1.167,-2.577l-1.823,-4.84l4.711,2.133c1.006,0.456 2.191,0.009 2.647,-0.997c0.455,-1.006 0.009,-2.191 -0.997,-2.647l-4.711,-2.133l4.84,-1.823c1.034,-0.389 1.556,-1.543 1.167,-2.577c-0.39,-1.034 -1.543,-1.557 -2.577,-1.167z"/>
  <circle id="svg_12" fill="#ffffff" r="3" cy="39.643421" cx="50.873461"/>
  <rect id="svg_14" fill="#e5e5e5" y="37.643421" x="7.514461" width="24" height="4"/>
 </g>
</svg>