<svg width="560" height="560" xmlns="http://www.w3.org/2000/svg">
 <defs>
  <filter height="200%" width="200%" y="-50%" x="-50%" id="XMLID_10877__blur">
   <feGaussianBlur stdDeviation="0" in="SourceGraphic"/>
  </filter>
 </defs>
 <g>
  <title>background</title>
  <rect fill="none" id="canvas_background" height="562" width="562" y="-1" x="-1"/>
 </g>
 <g>
  <title>Layer 1</title>
  <g id="svg_1">
   <g id="svg_2">
    <path filter="url(#XMLID_10877__blur)" stroke-width="0" fill="#ffffff" id="XMLID_10877_" d="m132.534498,468.260498c-12.576796,-8.316091 -21.226105,-16.081404 -27.793262,-18.656587c-6.567157,-2.575184 -32.988419,-2.354091 -49.929997,-7.009535c-16.941578,-4.655444 -22.595911,-3.28909 -23.695911,-3.48909c-10.7,-1.7 -22.24432,-22.629291 -26.552347,-37.054842c-4.308027,-14.425552 0.388344,-42.061992 10.788344,-54.161992c27.575297,-32.510032 60.5116,-61.109085 102.166911,-77.278421c41.655311,-16.169335 22.125501,15.286717 17.971132,20.993837c-4.154369,5.70712 -1.352894,6.65913 -2.852894,7.35913c-17.65,8.9 -44.539973,31.673412 -50.84343,35.179823c-6.303458,3.50641 -26.044018,28.183336 -30.858601,33.568354c-4.814582,5.385018 -10.94404,14.530896 -8.04404,20.930896c4.3,9.2 2.199415,15.546793 12.299415,17.146793c27.676376,5.570874 54.310558,3.680404 78.210558,13.080404c19.94793,12.572945 16.281595,13.94184 29.248752,13.58271c12.967157,-0.35913 17.52967,-3.214864 24.82967,-9.281285c7.3,-6.066421 11.828352,-9.086206 22.021061,-12.67729c10.192709,-3.591084 13.53781,-6.694352 29.018174,-7.200822c15.480364,-0.50647 17.84669,1.175184 27.564215,6.016789c9.717525,4.841605 14.074725,8.076922 23.974725,13.276922c18.6,9.7 34.806804,12.293779 49.406804,8.093779c8.3,-2.4 14.526114,-5.244586 22.526114,-9.344586c7.8,-4 16.617173,-7.601299 25.317173,-10.201299c18.2,-5.3 13.405543,-7.660687 55.441605,-6.083946c42.036062,1.576741 38.5093,-0.703281 58.3093,-8.503281c3.549632,-3.291973 7.529522,-5.47306 4.427554,-15.409442c-3.101968,-9.936383 -12.265446,-15.791648 -19.307051,-21.792384c-7.041605,-6.000735 -12.188672,-9.748949 -23.175015,-18.939068c-10.986343,-9.190119 -43.295934,-50.848343 -44.795934,-52.848343c-9.425275,-17.50024 -11.157997,-14.629075 -17.278138,-32.246526c-6.120142,-17.61745 -9.235653,-36.278452 -14.383273,-51.130832c-12.4,-28.5 -12.454975,-32.40145 -37.241954,-58.115644c-24.78698,-25.714193 -44.539213,-29.675232 -99.885958,-9.575232c-55.346745,20.1 -79.960012,76.949617 -88.374716,103.956074c-8.414704,27.006457 -5.950379,23.327836 -14.801366,39.311624c-8.850987,15.983789 -25.979744,17.625145 -26.808314,-20.660566c-0.828571,-38.285712 21.02774,-71.627484 38.62123,-99.174229c17.59349,-27.546745 49.094662,-51.980469 76.080469,-60.1c26.985807,-8.119531 72.590156,-27.400159 114.271798,-0.039221c41.681642,27.360938 54.923581,55.130512 67.723581,84.630512l16.997283,58.626388c10.746326,16.656473 17.616733,39.772811 32.238978,49.969418c11.004721,16.398078 29.894935,26.496736 59.539365,49.947677c14.822215,11.725471 33.053875,39.943004 31.732933,56.111133c-1.320942,16.168129 -14.937566,30.962703 -19.595118,35.309415c-9.315104,8.693423 -45.21775,11.657875 -73.473414,9.098436c-28.255664,-2.55944 -25.780849,-3.207621 -39.994101,-1.474811c-14.213252,1.73281 -30.82848,11.719293 -38.42848,15.619293c-7.9,4.1 -38.78759,13.874183 -53.789061,13.015053c-15.001472,-0.859129 -37.770332,-5.484544 -57.770332,-15.984544c-30.110959,-19.133302 -35.585596,-12.243922 -40.746262,-12.196343c-5.160666,0.047579 -18.551664,10.177766 -26.249015,15.222789c-7.697351,5.045023 -24.81175,15.604874 -37.713941,16.120552c-12.902191,0.515678 -30.508405,-3.339837 -36.345219,-5.53764z"/>
    <path stroke-width="0" fill="#ffffff" id="XMLID_10876_" d="m220.302838,353.551977c-34.798551,-1.449275 -66.652465,-13.426288 -75.607762,-16.427716c-8.955298,-3.001427 -17.054306,-15.492688 -21.096647,-22.052554c-4.042341,-6.559866 -2.556516,-14.939163 -3.115789,-19.280808c-0.559272,-4.341645 9.340646,-28.559669 14.97743,-32.470997c5.636784,-3.911328 17.590004,-7.722978 28.842866,-8.189971c11.252862,-0.466992 21.999463,2.971688 33.299463,5.171688c11.3,2.2 18.61905,5.546146 32.074502,5.570962c13.455452,0.024816 19.295162,-0.018527 60.074424,-7.122675c20.389631,-3.552074 38.199898,-13.45003 58.150644,-18.900187c19.950746,-5.450157 35.198193,-1.288909 42.985228,-1.574613c7.787035,-0.285704 19.065166,1.20944 21.328381,3.622655c2.263216,2.413216 0.709457,23.352284 -9.295638,20.638436c-10.005095,-2.713849 -16.605783,-0.679325 -24.308647,1.080114c-7.702864,1.759439 -72.787047,25.272212 -93.870258,28.047395c-21.083211,2.775184 -33.276891,9.282701 -74.3983,1.794242c-41.121409,-7.488459 -58.799817,-10.243691 -56.850111,2.74276c1.949706,12.98645 58.875096,21.571079 99.208912,24.168181c40.333816,2.597101 67.648606,-10.753509 108.448606,-21.353509c9.1,-2.4 32.656252,-12.126819 41.699306,-20.39388c9.043054,-8.26706 29.901987,5.893898 26.477015,11.838291c-6.621229,8.34527 -19.815908,21.27769 -28.786866,26.699283c-8.970957,5.421593 -22.772832,11.809368 -36.574707,16.264777c-13.801874,4.455409 -48.471367,16.373471 -84.371367,19.173471c-8.7,0.5 -24.492135,2.40393 -59.290685,0.954655z"/>
    <path stroke-width="0" fill="#ffffff" id="XMLID_10871_" d="m399.548853,240.790854c22.66598,26.049401 19.344968,-5.137908 18.894398,-15.538465c-0.45057,-10.400557 1.210584,-48.695269 3.435854,-56.20564c4.45054,-15.020741 15.253774,-38.009113 30.241276,-46.215373c14.987502,-8.20626 45.390587,-9.718283 60.720056,-0.904274c15.329468,8.81401 22.828164,30.251505 21.949932,45.754874c-0.878231,15.50337 -8.58005,40.146433 -15.627175,49.227071c-7.047125,9.080638 -13.055663,16.184221 -20.954458,21.269764c-7.898796,5.085543 -21.678406,5.476334 -24.390431,4.953929c-2.712025,-0.522405 -7.146821,0.641831 -7.361758,-1.467216c-0.214937,-2.109047 20.734345,-3.700817 30.706267,-0.960768c9.971921,2.740049 25.758168,4.347705 35.641967,13.41492c9.883799,9.067215 14.045129,25.108542 12.17956,35.028036c-1.865569,9.919494 -25.106002,25.180291 -43.091066,21.946078c-4.296621,-1.005093 -11.082861,-0.142969 -23.885685,-9.239329c-8.181539,-3.928017 -14.495864,-6.403754 -23.299808,-14.688606zm-22.450699,-47.181204c0.7,4.7 16.11732,19.855573 22.341371,24.63025c6.224052,4.774678 19.777075,16.428429 27.923531,20.774505c8.146455,4.346075 12.536069,6.929313 20.891258,7.005261c5.477371,0.172664 22.727289,-10.210027 14.065895,-21.634078c-8.661393,-11.424051 -19.456325,-15.88641 -30.377465,-20.113373c-10.92114,-4.226963 -23.114334,-5.707376 -33.290664,-7.559655c-10.176331,-1.852278 -20.453926,-1.90291 -21.553926,-3.10291zm38.529614,-8.635202c10.267899,-4.759507 28.755073,-24.546832 32.351921,-33.847132c3.596848,-9.300301 8.946728,-29.77459 0.781498,-42.293622c-8.16523,-12.519032 -19.919663,-14.375389 -27.626892,-12.177799c-7.707228,2.19759 -30.580567,22.499331 -34.984399,31.179575c-4.403832,8.680244 -13.355924,45.519338 -7.705098,53.770014c5.650826,8.250676 26.915071,8.12847 37.18297,3.368964z"/>
    <path stroke-width="0" fill="#ffffff" id="XMLID_10868_" d="m444.655621,235.086183c-5.664447,0.664446 -12.447796,-1.698335 -14.147796,-5.198335c-2.8,-5.9 4.704982,-27.624198 9.026233,-37.018519c4.32125,-9.394322 13.788674,-22.023749 16.788674,-24.023749c6.1,-4.2 18.965569,-8.58947 24.792796,-6.577815c5.827228,2.011655 19.676654,12.689975 18.83444,25.103883c-0.842214,12.413907 -16.021084,30.477425 -24.973875,35.301322c-8.952792,4.823898 -24.656026,11.748766 -30.320472,12.413213zm9.321646,-46.368364c-3.161116,4.817238 -13.395395,23.362918 -14.427618,26.622369c-1.032223,3.259451 -3.657755,9.001804 -2.557755,11.201804c0.8,1.6 2.277718,2.922928 13.177718,-1.577072c5.5,-2.3 14.396993,-8.621189 19.388668,-12.390631c4.991675,-3.769442 19.652785,-21.90926 9.248868,-30.787615c-10.403917,-8.878354 -21.668765,2.113908 -24.829881,6.931145z"/>
    <path stroke-width="0" fill="#ffffff" id="XMLID_10867_" d="m459.335165,267.193008c-4.200823,-2.904557 -19.409117,-9.911143 -24.716585,-18.289622c-5.307467,-8.378479 -3.64177,-6.519912 0.212027,-3.073921c3.853797,3.445991 10.197214,6.477048 18.615317,11.167849c8.418103,4.690801 18.094942,9.314305 23.802028,10.960379c5.707087,1.646073 14.383417,4.562658 16.373038,0.217848c1.98962,-4.34481 -12.16595,-9.019494 -19.637723,-12.012026c-7.471773,-2.992532 -16.211425,-4.849071 -21.486901,-6.690253c-4.514757,-1.080464 -7.992174,-3.19827 -12.299463,-4.278734l-9.394905,-2.411519c-1.1,-5.4 5.313673,-3.443165 12.158483,-3.525317c6.84481,-0.082152 29.525696,8.905822 34.792912,10.516202c5.267216,1.61038 24.114686,7.697724 26.016965,13.667217c1.902279,5.969493 2.036517,9.46253 -0.865666,14.159683c-2.902183,4.697153 -17.193955,2.726931 -24.910175,0.039904c-7.71622,-2.687027 -14.458529,-7.543133 -18.659352,-10.44769z"/>
    <path stroke-width="0" fill="#ffffff" id="XMLID_10863_" d="m361.430612,400.197664c-3.146996,-0.727915 -5.795257,-13.471423 -7.001785,-22.505258c-1.206529,-9.033834 3.95413,-35.316565 8.05413,-51.316565c4.3,-16.8 29.217518,-34.504511 44.717518,-48.504511c1.2,-1.1 3.1,-1 4.2,0.2c1.1,1.2 3.912621,5.041747 2.712621,6.141747c-14.6,13.2 -25.010371,28.311852 -29.010371,44.011852c-3.5,13.7 -11.831906,52.563979 -5.360503,44.317531c6.471403,-8.246448 15.615818,-20.989524 17.258253,-22.57113c1.642435,-1.581606 1.5,-1.4 2.6,-1.4c0,0 0,0 0,0c1,0 2,0.5 2.6,1.4c4.3,7 5.057023,9.443586 10.357023,15.743586c0.116115,-11.543389 0.205368,-17.781771 1.105368,-23.881771c1.9,-12.2 3.753059,-24.318116 7.264012,-37.622644c3.510953,-13.304528 26.745273,-12.511562 23.015584,1.075416c-3.729689,13.586979 -5.705364,32.747807 -7.034538,46.716562c-1.329174,13.968755 2.848616,25.253759 4.051881,34.214587c1.203265,8.960828 -10.824561,15.028498 -20.79223,9.869759c-9.967669,-5.15874 -12.963906,-8.454968 -18.663906,-17.554968c-6.4,9.7 -10.539708,13.023745 -15.354855,19.232951c-4.815148,6.209207 -21.571206,3.16077 -24.718202,2.432855z"/>
   </g>
  </g>
 </g>
</svg>