<?xml version="1.0" ?><svg height="60px" version="1.1" viewBox="0 0 60 60" width="60px" xmlns="http://www.w3.org/2000/svg" xmlns:sketch="http://www.bohemiancoding.com/sketch/ns" xmlns:xlink="http://www.w3.org/1999/xlink"><title/><desc/><defs/><g fill="none" fill-rule="evenodd" id="soical" stroke="none" stroke-width="1"><g id="social" transform="translate(-873.000000, -138.000000)"><g id="slices" transform="translate(173.000000, 138.000000)"/><g fill="#000000" id="square-black" transform="translate(173.000000, 138.000000)"><path d="M702.995937,0 L757.004063,0 C758.658673,0 760,1.33730974 760,2.99593743 L760,57.0040626 C760,58.6586731 758.66269,60 757.004063,60 L702.995937,60 C701.341327,60 700,58.6626903 700,57.0040626 L700,2.99593743 C700,1.34132688 701.33731,0 702.995937,0 Z" id="square-8"/></g><g fill="#FFFFFF" id="icon" transform="translate(182.000000, 150.000000)"><path d="M707.153846,23.7692308 L704.846154,23.7692308 L704.846154,12.2307692 L709.461538,12.2307692 L709.461538,19.1538462 L732.538462,19.1538462 L732.538462,12.2307692 L737.153846,12.2307692 L737.153846,21.4615385 L737.153846,23.7692308 L707.153846,23.7692308 Z" id="myspace"/></g></g></g></svg>