<svg width="512" height="512" xmlns="http://www.w3.org/2000/svg">

 <g>
  <title>background</title>
  <rect fill="none" id="canvas_background" height="402" width="582" y="-1" x="-1"/>
 </g>
 <g>
  <title>Layer 1</title>
  <path fill="#ffffff" id="svg_1" d="m86.4,480l339.2,0c12.3,0 22.4,-9.9 22.4,-22.1l0,-211.9c0,-12.2 -10,-22 -22.4,-22l-21.6,0l0,-30.9c0,-41.5 -16.2,-87.6 -42.6,-115.4c-26.3,-27.8 -64,-45.7 -105.3,-45.7c-0.1,0 -0.1,0 -0.1,0c0,0 -0.1,0 -0.1,0c-41.3,0 -79,17.9 -105.3,45.6c-26.4,27.8 -42.6,73.9 -42.6,115.4l0,31l-19,0l-2.6,0c-12.4,0 -22.4,9.9 -22.4,22l0,211.9c0,12.2 10,22.1 22.4,22.1zm74.6,-286.9c0,-27.3 9.9,-61.1 28.1,-80.3l0,0l0,-0.3c17.6,-18.6 41.9,-29.5 66.8,-29.5l0.1,0l0.1,0c24.9,0 49.2,10.9 66.8,29.5l0,0.2l-0.1,0.1c18.3,19.2 28.1,53 28.1,80.3l0,30.9l-17.5,0l-155,0l-17.4,0l0,-30.9z"/>
 </g>
</svg>