<?xml version="1.0" encoding="utf-8"?><svg class="ldi-t10bue" width="100%" height="100%" xmlns="http://www.w3.org/2000/svg" xmlns:xlink="http://www.w3.org/1999/xlink" viewBox="0 0 100 100" preserveAspectRatio="xMidYMid" style="width:40px;webkit-logical-width:40px;webkit-logical-height:40px;user-select:none;transform-origin:20px 20px;stroke-width:1px;r:0px;pointer-events:all;perspective-origin:20px 20px;overflow-y:hidden;overflow-x:hidden;overflow:hidden;inline-size:40px;height:40px;display:block;d:none;block-size:40px;background:rgba(0, 0, 0, 0) none repeat scroll 0% 0% / auto padding-box border-box" ><svg version="1.1" id="圖層_1" xmlns="http://www.w3.org/2000/svg" xmlns:xlink="http://www.w3.org/1999/xlink" x="0px" y="0px" viewBox="0 0 100 100" xml:space="preserve" class="" style="x:0px;user-select:none;transform-origin:50px 50px;transform:none;stroke-width:1px;r:0px;pointer-events:all;perspective-origin:0px 0px;overflow-y:hidden;overflow-x:hidden;overflow:hidden;display:block" ><g class="" style="x:0px;user-select:none;transform-origin:50px 50px;transform:none;stroke-width:1px;r:0px;pointer-events:all;perspective-origin:0px 0px" ><g fill="#ffffff" class="" style="x:0px;user-select:none;transform-origin:50px 50px;transform:matrix(1, 0, 0, 1, 0, 0);stroke-width:1px;r:0px;pointer-events:all;perspective-origin:0px 0px;fill:rgb(255, 255, 255)" ><g class="" style="x:0px;user-select:none;transform-origin:50px 50px;transform:none;stroke-width:1px;r:0px;pointer-events:all;perspective-origin:0px 0px;fill:rgb(255, 255, 255)" ><g fill="#ffffff" class="" style="user-select:none;stroke-width:1px;r:0px;pointer-events:all;perspective-origin:0px 0px;fill:rgb(255, 255, 255)" ><style type="text/css" class="ld " style="y:0px;x:0px;user-select:none;transform-origin:50px 50px;transform:none;stroke-width:1px;r:0px;pointer-events:all;fill:rgb(255, 255, 255);direction:ltr;d:none" >.st0{fill:#D1D1D1;} .st1{fill:#454545;} .st2{fill:#464646;} .st3{fill:#FFFFFF;}</style>
<g class="ld " style="y:0px;x:0px;user-select:none;transform-origin:50px 50px;transform:none;stroke-width:1px;r:0px;pointer-events:all;perspective-origin:0px 0px;fill:rgb(255, 255, 255);direction:ltr;d:none" ><path class="st0" d="M16.987,92.173c-1.697,0-3.252-0.621-4.379-1.747l-3.363-3.363c-2.688-2.69-2.222-7.368,1.062-10.652 c1.777-1.777,4.053-2.798,6.247-2.805l5.423-5.423c-3.206-2.837-4.666-3.65-4.916-3.78c-4.273-1.695-4.943-4.097-4.748-5.818 c0.197-1.737,1.405-3.95,6.045-4.626c0.167-0.024,0.786-0.103,1.764-0.103c2.176,0,6.163,0.395,10.677,2.739l5.54-6.211 L11.65,28.363c-0.641-0.572-1.057-1.353-1.174-2.204l-1.95-14.231C8.37,10.789,8.765,9.645,9.59,8.846 c0.679-0.659,1.583-1.019,2.513-1.019c0.199,0,0.4,0.016,0.6,0.05l14.276,2.406c0.81,0.137,1.549,0.545,2.095,1.158l20.991,23.551 l21.112-23.67c0.571-0.641,1.353-1.057,2.203-1.174l14.231-1.951c0.164-0.022,0.328-0.034,0.491-0.034 c0.97,0,1.906,0.391,2.591,1.097c0.8,0.825,1.16,1.98,0.969,3.113L89.256,26.65c-0.136,0.81-0.545,1.549-1.158,2.095L63.802,50.402 l5.401,6.06c4.512-2.342,8.499-2.738,10.674-2.738c0.979,0,1.599,0.079,1.765,0.103c4.639,0.676,5.849,2.888,6.045,4.624 c0.195,1.722-0.475,4.124-4.748,5.819c-0.25,0.13-1.71,0.943-4.915,3.78l5.424,5.424c2.193,0.007,4.468,1.028,6.245,2.805 c3.284,3.284,3.75,7.963,1.062,10.652l-3.365,3.364c-1.126,1.126-2.68,1.746-4.378,1.746c0,0,0,0-0.001,0 c-2.202,0-4.489-1.024-6.273-2.81c-1.814-1.813-2.797-4.095-2.803-6.245l-5.425-5.424c-2.837,3.206-3.65,4.666-3.779,4.915 c-1.257,3.168-3.051,4.776-5.336,4.776c-1.577,0-4.338-0.789-5.109-6.072c-0.038-0.265-0.79-5.816,2.637-12.439l-6.848-6.108 l-7,6.241c3.427,6.623,2.675,12.174,2.637,12.437c-0.77,5.284-3.531,6.073-5.108,6.073c-2.284,0-4.078-1.606-5.335-4.775 c-0.13-0.251-0.944-1.71-3.781-4.915l-5.425,5.425c-0.008,2.149-0.991,4.432-2.804,6.244C21.475,91.149,19.189,92.173,16.987,92.173 z" fill="#ffffff" style="user-select:none;r:0px;pointer-events:all;perspective-origin:0px 0px;fill:rgb(255, 255, 255);d:path('M 16.987 92.173 c -1.697 0 -3.252 -0.621 -4.379 -1.747 l -3.363 -3.363 c -2.688 -2.69 -2.222 -7.368 1.062 -10.652 c 1.777 -1.777 4.053 -2.798 6.247 -2.805 l 5.423 -5.423 c -3.206 -2.837 -4.666 -3.65 -4.916 -3.78 c -4.273 -1.695 -4.943 -4.097 -4.748 -5.818 c 0.197 -1.737 1.405 -3.95 6.045 -4.626 c 0.167 -0.024 0.786 -0.103 1.764 -0.103 c 2.176 0 6.163 0.395 10.677 2.739 l 5.54 -6.211 L 11.65 28.363 c -0.641 -0.572 -1.057 -1.353 -1.174 -2.204 l -1.95 -14.231 C 8.37 10.789 8.765 9.645 9.59 8.846 c 0.679 -0.659 1.583 -1.019 2.513 -1.019 c 0.199 0 0.4 0.016 0.6 0.05 l 14.276 2.406 c 0.81 0.137 1.549 0.545 2.095 1.158 l 20.991 23.551 l 21.112 -23.67 c 0.571 -0.641 1.353 -1.057 2.203 -1.174 l 14.231 -1.951 c 0.164 -0.022 0.328 -0.034 0.491 -0.034 c 0.97 0 1.906 0.391 2.591 1.097 c 0.8 0.825 1.16 1.98 0.969 3.113 L 89.256 26.65 c -0.136 0.81 -0.545 1.549 -1.158 2.095 L 63.802 50.402 l 5.401 6.06 c 4.512 -2.342 8.499 -2.738 10.674 -2.738 c 0.979 0 1.599 0.079 1.765 0.103 c 4.639 0.676 5.849 2.888 6.045 4.624 c 0.195 1.722 -0.475 4.124 -4.748 5.819 c -0.25 0.13 -1.71 0.943 -4.915 3.78 l 5.424 5.424 c 2.193 0.007 4.468 1.028 6.245 2.805 c 3.284 3.284 3.75 7.963 1.062 10.652 l -3.365 3.364 c -1.126 1.126 -2.68 1.746 -4.378 1.746 c 0 0 0 0 -0.001 0 c -2.202 0 -4.489 -1.024 -6.273 -2.81 c -1.814 -1.813 -2.797 -4.095 -2.803 -6.245 l -5.425 -5.424 c -2.837 3.206 -3.65 4.666 -3.779 4.915 c -1.257 3.168 -3.051 4.776 -5.336 4.776 c -1.577 0 -4.338 -0.789 -5.109 -6.072 c -0.038 -0.265 -0.79 -5.816 2.637 -12.439 l -6.848 -6.108 l -7 6.241 c 3.427 6.623 2.675 12.174 2.637 12.437 c -0.77 5.284 -3.531 6.073 -5.108 6.073 c -2.284 0 -4.078 -1.606 -5.335 -4.775 c -0.13 -0.251 -0.944 -1.71 -3.781 -4.915 l -5.425 5.425 c -0.008 2.149 -0.991 4.432 -2.804 6.244 C 21.475 91.149 19.189 92.173 16.987 92.173 Z')" ></path></g>
<g class="ld " style="y:0px;x:0px;user-select:none;transform-origin:50px 50px;transform:none;stroke-width:1px;r:0px;pointer-events:all;perspective-origin:0px 0px;fill:rgb(255, 255, 255);direction:ltr;d:none" ><path class="st1" d="M88.202,84.379l-3.364,3.363c-1.238,1.239-3.721,0.763-5.546-1.062c-1.559-1.559-2.129-3.597-1.489-4.93 l-9.396-9.396c-6.086,6.368-6.997,8.71-6.997,8.71c-1.396,3.594-2.993,3.412-3.55-0.402c0,0-0.866-5.94,3.688-12.632l-11.47-10.231 L38.452,68.16c4.553,6.692,3.688,12.632,3.688,12.632c-0.556,3.814-2.153,3.995-3.548,0.402c0,0-0.911-2.342-7.001-8.712 l-9.395,9.395c0.641,1.333,0.072,3.373-1.489,4.934c-1.825,1.824-4.308,2.3-5.546,1.062l-3.364-3.364 c-1.238-1.238-0.762-3.721,1.062-5.546c1.559-1.558,3.595-2.128,4.928-1.49l9.397-9.397c-6.367-6.085-8.708-6.996-8.708-6.996 c-3.593-1.395-3.412-2.993,0.402-3.549c0,0,5.94-0.866,12.632,3.688l9.925-11.128L14.053,25.669l-1.95-14.231l14.276,2.406 l23.686,26.573l23.807-26.692l14.23-1.951L85.696,26.05L58.704,50.11l9.785,10.978c6.692-4.553,12.632-3.687,12.632-3.687 c3.814,0.555,3.995,2.153,0.402,3.548c0,0-2.341,0.911-8.71,6.999l9.396,9.396c1.333-0.64,3.371-0.07,4.931,1.49 C88.964,80.657,89.441,83.14,88.202,84.379z" fill="none" style="user-select:none;pointer-events:all;perspective-origin:0px 0px;fill:none;d:path('M 88.202 84.379 l -3.364 3.363 c -1.238 1.239 -3.721 0.763 -5.546 -1.062 c -1.559 -1.559 -2.129 -3.597 -1.489 -4.93 l -9.396 -9.396 c -6.086 6.368 -6.997 8.71 -6.997 8.71 c -1.396 3.594 -2.993 3.412 -3.55 -0.402 c 0 0 -0.866 -5.94 3.688 -12.632 l -11.47 -10.231 L 38.452 68.16 c 4.553 6.692 3.688 12.632 3.688 12.632 c -0.556 3.814 -2.153 3.995 -3.548 0.402 c 0 0 -0.911 -2.342 -7.001 -8.712 l -9.395 9.395 c 0.641 1.333 0.072 3.373 -1.489 4.934 c -1.825 1.824 -4.308 2.3 -5.546 1.062 l -3.364 -3.364 c -1.238 -1.238 -0.762 -3.721 1.062 -5.546 c 1.559 -1.558 3.595 -2.128 4.928 -1.49 l 9.397 -9.397 c -6.367 -6.085 -8.708 -6.996 -8.708 -6.996 c -3.593 -1.395 -3.412 -2.993 0.402 -3.549 c 0 0 5.94 -0.866 12.632 3.688 l 9.925 -11.128 L 14.053 25.669 l -1.95 -14.231 l 14.276 2.406 l 23.686 26.573 l 23.807 -26.692 l 14.23 -1.951 L 85.696 26.05 L 58.704 50.11 l 9.785 10.978 c 6.692 -4.553 12.632 -3.687 12.632 -3.687 c 3.814 0.555 3.995 2.153 0.402 3.548 c 0 0 -2.341 0.911 -8.71 6.999 l 9.396 9.396 c 1.333 -0.64 3.371 -0.07 4.931 1.49 C 88.964 80.657 89.441 83.14 88.202 84.379 Z')" ></path></g>
<metadata xmlns:d="https://loading.io/stock/" class="ld " style="y:0px;x:0px;user-select:none;transform-origin:50px 50px;transform:none;stroke-width:1px;r:0px;pointer-events:all;fill:rgb(255, 255, 255);direction:ltr;d:none" ><d:name class="ld " style="y:0px;x:0px;user-select:none;transform-origin:50px 50px;transform:none;stroke-width:1px;r:0px;pointer-events:all;fill:rgb(255, 255, 255);direction:ltr;d:none" >battlefield</d:name>


<d:tags class="ld " style="y:0px;x:0px;user-select:none;transform-origin:50px 50px;transform:none;stroke-width:1px;r:0px;pointer-events:all;fill:rgb(255, 255, 255);direction:ltr;d:none" >sword,fight,combat,compete,war,battlefield,map</d:tags>


<d:license class="ld " style="y:0px;x:0px;user-select:none;transform-origin:50px 50px;transform:none;stroke-width:1px;r:0px;pointer-events:all;fill:rgb(255, 255, 255);direction:ltr;d:none" >cc0</d:license>


<d:slug class="ld " style="y:0px;x:0px;user-select:none;transform-origin:50px 50px;transform:none;stroke-width:1px;r:0px;pointer-events:all;fill:rgb(255, 255, 255);direction:ltr;d:none" >t10bue</d:slug></metadata></g></g></g></g>
<style type="text/css" class="ld " style="y:0px;x:0px;user-select:none;transform-origin:50px 50px;transform:none;stroke-width:1px;r:0px;pointer-events:all;direction:ltr;d:none" >path,ellipse,circle,rect,polygon,polyline,line { stroke-width: 0; }@keyframes ld-breath {
  0% {
    -webkit-transform: scale(0.86);
    transform: scale(0.86);
  }
  50% {
    -webkit-transform: scale(1.06);
    transform: scale(1.06);
  }
  100% {
    -webkit-transform: scale(0.86);
    transform: scale(0.86);
  }
}
@-webkit-keyframes ld-breath {
  0% {
    -webkit-transform: scale(0.86);
    transform: scale(0.86);
  }
  50% {
    -webkit-transform: scale(1.06);
    transform: scale(1.06);
  }
  100% {
    -webkit-transform: scale(0.86);
    transform: scale(0.86);
  }
}
.ld.ld-breath {
  -webkit-animation: ld-breath 1s infinite;
  animation: ld-breath 1s infinite;
}</style></svg></svg>