<svg width="114" height="110" xmlns="http://www.w3.org/2000/svg">

 <g>
  <title>background</title>
  <rect fill="none" id="canvas_background" height="112" width="116" y="-1" x="-1"/>
 </g>
 <g>
  <title>Layer 1</title>
  <path fill="#ffffff" id="svg_3" d="m96.138402,19.331384l-50,0c-0.6,0 -1,0.4 -1,1l0,12c0,0.6 0.4,1 1,1l50,0c0.6,0 1,-0.4 1,-1l0,-12c0,-0.6 -0.4,-1 -1,-1z" class="st0"/>
  <path fill="#ffffff" id="svg_4" d="m96.138402,47.331384l-50,0c-0.6,0 -1,0.4 -1,1l0,12c0,0.6 0.4,1 1,1l50,0c0.6,0 1,-0.4 1,-1l0,-12c0,-0.6 -0.4,-1 -1,-1z" class="st0"/>
  <path fill="#ffffff" id="svg_5" d="m96.138402,75.331384l-50,0c-0.6,0 -1,0.4 -1,1l0,12c0,0.6 0.4,1 1,1l50,0c0.6,0 1,-0.4 1,-1l0,-12c0,-0.6 -0.4,-1 -1,-1z" class="st0"/>
  <path fill="#ffffff" id="svg_6" d="m30.138402,19.331384l-12,0c-0.6,0 -1,0.4 -1,1l0,12c0,0.6 0.4,1 1,1l12,0c0.6,0 1,-0.4 1,-1l0,-12c0,-0.6 -0.4,-1 -1,-1z" class="st0"/>
  <path fill="#ffffff" id="svg_7" d="m30.138402,47.331384l-12,0c-0.6,0 -1,0.4 -1,1l0,12c0,0.6 0.4,1 1,1l12,0c0.6,0 1,-0.4 1,-1l0,-12c0,-0.6 -0.4,-1 -1,-1z" class="st0"/>
  <path fill="#ffffff" id="svg_8" d="m30.138402,75.331384l-12,0c-0.6,0 -1,0.4 -1,1l0,12c0,0.6 0.4,1 1,1l12,0c0.6,0 1,-0.4 1,-1l0,-12c0,-0.6 -0.4,-1 -1,-1z" class="st0"/>
 </g>
</svg>