<svg width="91" height="91" xmlns="http://www.w3.org/2000/svg">

 <g>
  <title>background</title>
  <rect fill="none" id="canvas_background" height="562" width="562" y="-1" x="-1"/>
 </g>
 <g>
  <title>Layer 1</title>
  <path id="svg_2" fill="#ffffff" d="m40.571,44.946491c-3.717,3.278 -8.588,5.287 -13.924,5.287c-5.283,0 -10.256,-1.973 -13.959,-5.199c-0.033,0.02 -0.347,0.053 -0.383,0.066c-6.104,2.888 -10.053,7.877 -10.053,14.048l0,20.854l48.107,0l0,-20.855c0,-6.149 -3.575,-11.315 -9.788,-14.201z"/>
  <rect id="svg_3" y="18.017509" x="52.234982" width="37.32" height="10.05" fill="#cccccc"/>
  <rect id="svg_4" y="36.309" x="52.502" width="37.32" height="10.05" fill="#cccccc"/>
  <rect id="svg_5" y="54.733" x="57.527" width="32.295" height="10.05" fill="#cccccc"/>
  <rect id="svg_6" y="71.483" x="57.527" width="32.295" height="10.05" fill="#cccccc"/>
  <path id="svg_8" fill="#ffffff" d="m45.289,31.041c0,10.456 -8.421,18.93 -18.814,18.93c-10.384,0 -18.802,-8.474 -18.802,-18.93c0,-10.455 8.418,-18.936 18.802,-18.936c10.393,0 18.814,8.481 18.814,18.936z"/>
  <path stroke="null" id="svg_9" fill="none" d="m26.475,52.482c-11.753,0 -21.314,-9.618 -21.314,-21.441c0,-11.826 9.562,-21.447 21.314,-21.447c11.76,0 21.327,9.621 21.327,21.447c0,11.823 -9.568,21.441 -21.327,21.441zm0,-37.863c-8.981,0 -16.289,7.367 -16.289,16.422c0,9.053 7.308,16.416 16.289,16.416c8.989,0 16.302,-7.363 16.302,-16.416c-0.001,-9.055 -7.313,-16.422 -16.302,-16.422z"/>
  <path id="svg_10" fill="none" d="m49.804,81.39c-1.388,0 -2.513,-1.125 -2.513,-2.513l0,-23.155c0,-4.724 -2.278,-7.743 -7.39,-9.79c-1.288,-0.516 -1.914,-1.979 -1.397,-3.267c0.515,-1.288 1.976,-1.915 3.267,-1.398c6.997,2.804 10.546,7.667 10.546,14.455l0,23.155c-0.001,1.388 -1.126,2.513 -2.513,2.513z"/>
  <path id="svg_11" fill="none" d="m3.453,81.39c-1.388,0 -2.513,-1.125 -2.513,-2.513l0,-23.16c0,-4.604 1.824,-10.846 10.517,-14.439c1.278,-0.529 2.752,0.079 3.282,1.361c0.53,1.283 -0.08,2.752 -1.362,3.282c-4.987,2.062 -7.411,5.267 -7.411,9.796l0,23.16c0,1.388 -1.125,2.513 -2.513,2.513z"/>
  <path id="svg_12" fill="#ffffff" d="m88.397,21.467l-34.851,0c-1.388,0 -2.513,-1.125 -2.513,-2.513s1.125,-2.513 2.513,-2.513l34.852,0c1.388,0 2.513,1.125 2.513,2.513s-1.126,2.513 -2.514,2.513z"/>
  <path id="svg_13" fill="#ffffff" d="m88.397,39.306l-34.851,0c-1.388,0 -2.513,-1.125 -2.513,-2.513s1.125,-2.513 2.513,-2.513l34.852,0c1.388,0 2.513,1.125 2.513,2.513s-1.126,2.513 -2.514,2.513z"/>
  <path id="svg_14" fill="#ffffff" d="m88.397,57.148l-29.872,0c-1.388,0 -2.513,-1.125 -2.513,-2.513s1.125,-2.513 2.513,-2.513l29.872,0c1.388,0 2.513,1.125 2.513,2.513s-1.125,2.513 -2.513,2.513z"/>
  <path id="svg_15" fill="#ffffff" d="m88.397,74.991l-29.872,0c-1.388,0 -2.513,-1.125 -2.513,-2.513s1.125,-2.513 2.513,-2.513l29.872,0c1.388,0 2.513,1.125 2.513,2.513s-1.125,2.513 -2.513,2.513z"/>
 </g>
</svg>