<svg width="500" height="500" xmlns="http://www.w3.org/2000/svg">

 <g>
  <title>background</title>
  <rect fill="none" id="canvas_background" height="402" width="582" y="-1" x="-1"/>
 </g>
 <g>
  <title>Layer 1</title>
  <path id="svg_1" fill-rule="evenodd" fill="#ffffff" d="m113.806,139.702l0,1.272c2.91,79.95 17.807,151.452 24.622,158.445c15.812,21.084 64.777,55.792 92.399,73.235c6.814,4.362 12.625,5.181 19.173,5.356c6.537,-0.176 12.349,-1.269 19.166,-5.356c28.171,-16.63 77.773,-52.151 93.497,-73.235c6.904,-6.993 20.709,-78.495 23.621,-158.445l0.087,-1.272c0,-7.361 -4.722,-13.719 -11.268,-16.083c-34.251,-11.898 -84.396,-15.079 -125.016,-15.079c-40.707,0 -90.854,3.181 -125.014,15.079c-6.547,2.364 -11.267,8.722 -11.267,16.083zm-81.857,-52.425l0.087,2c4.631,127.925 25.163,240.399 36.253,251.575c25.438,33.808 106.756,86.315 150.727,115.024c10.453,6.817 20.444,11.906 30.984,12.174c10.542,-0.268 20.529,-5.356 30.983,-12.174c43.972,-28.709 125.288,-81.217 150.728,-115.024c11.08,-11.176 31.621,-123.649 36.252,-251.575l0.088,-2c0,-11.808 -7.631,-22.075 -18.172,-25.8c-55.15,-19.081 -134.285,-29.528 -199.879,-29.528c-65.603,0 -144.738,10.446 -199.881,29.528c-10.54,3.726 -18.17,13.992 -18.17,25.8zm44.061,29.71c0,-9.445 6.086,-17.532 14.445,-20.529c43.617,-15.085 107.667,-19.083 159.545,-19.083c51.876,0 115.93,3.997 159.545,19.082c8.361,2.997 14.448,11.084 14.448,20.529l-0.101,1.549c-3.718,101.302 -21.259,193.244 -30.07,202.15c-20.175,26.716 -84.499,69.59 -119.288,92.301c-8.272,5.369 -16.179,9.458 -24.534,9.637c-8.358,-0.179 -16.264,-4.268 -24.532,-9.637c-34.799,-22.711 -99.124,-65.585 -119.292,-92.301c-8.809,-8.906 -26.351,-100.849 -30.077,-202.15l-0.089,-1.548z" clip-rule="evenodd"/>
 </g>
</svg>