<svg width="375" height="375" xmlns="http://www.w3.org/2000/svg">
 <defs>
  <linearGradient y2="0" y1="0.779782" x2="0" x1="1" id="svg_10">
   <stop stop-opacity="0.996094" stop-color="#e5e5e5" offset="0"/>
   <stop stop-opacity="0.996094" stop-color="#ffffff" offset="1"/>
  </linearGradient>
 </defs>
 <g>
  <title>background</title>
  <rect fill="none" id="canvas_background" height="377" width="377" y="-1" x="-1"/>
 </g>
 <g>
  <title>Layer 1</title>
  <g id="svg_12">
   <polygon transform="rotate(45 168.52139282226565,159.099365234375) " id="svg_1" points="205.06289672851562,-86.87761688232419 116.70790100097656,-0.7036209106445028 80.71189880371094,136.73838806152347 135.2519073486328,358.17041015625 212.69891357421875,405.07635498046875 226.87991333007812,354.89837646484375 256.3309020996094,42.92837524414065 " fill="#7f7f7f"/>
   <polygon transform="rotate(45 159.65074157714847,200.36471557617188) " id="svg_2" points="224.5537395477295,48.74221706390381 170.01373100280762,-10.160775184631348 94.74773979187012,94.556227684021 180.92175102233887,410.89019680023193 195.10275077819824,360.71319484710693 " fill="url(#svg_10)"/>
   <polygon transform="rotate(45 339.367919921875,73.86862182617189) " id="svg_3" points="366.63793182373047,138.77161407470703 366.63793182373047,138.77161407470703 315.3699264526367,8.965621948242188 312.0979232788086,79.86862182617188 " fill="#e5e5e5"/>
   <polygon transform="rotate(45 274.96289062500006,41.85895919799805) " id="svg_4" points="315.86837005615234,24.951961517333984 319.14037322998047,-45.9510383605957 230.7853775024414,40.222957611083984 240.60237884521484,129.66896438598633 " fill="#cccccc"/>
   <polygon transform="rotate(45 107.20144653320314,221.96153259277344) " id="svg_5" points="64.11444091796875,63.794538497924805 72.84144592285156,333.222562789917 150.2884521484375,380.12850761413574 " fill="#cccccc"/>
  </g>
 </g>
</svg>