<svg width="384.99999999999994" height="384.99999999999994" xmlns="http://www.w3.org/2000/svg">

 <g>
  <title>background</title>
  <rect fill="none" id="canvas_background" height="387" width="387" y="-1" x="-1"/>
 </g>
 <g>
  <title>Layer 1</title>
  <path transform="rotate(45 107.53067016601562,132.79933166503906) " stroke="null" id="svg_13" d="m119.663078,-47.471709c1.502335,-1.502335 8.262844,89.388947 8.262844,89.388947c0,0 9.765179,271.171509 9.765179,271.171509c0,0 -60.09341,-223.84795 -60.320844,-224.450982" stroke-opacity="null" stroke-width="0" fill="#cccccc"/>
  <g transform="rotate(45 187.64614868164062,181.63439941406247) " id="svg_14">
   <polygon id="svg_2" points="257.8332214355469,66.2145586013794 203.293212890625,7.3115739822387695 128.02723693847656,112.02856922149658 214.20123291015625,428.3625154495239 228.38223266601562,378.18554401397705 " fill="#ffffff"/>
   <polygon id="svg_3" points="261.5890808105469,60.95639514923096 261.5890808105469,60.95639514923096 210.32107543945312,-68.84960460662842 207.04904174804688,2.053402900695801 " fill="#ffffff"/>
   <polygon id="svg_4" points="198.78619384765625,2.053402900695801 202.05819702148438,-68.84960460662842 113.70321655273438,17.3243989944458 123.52021789550781,106.77040576934814 " fill="#e5e5e5"/>
   <polygon id="svg_5" points="122.76905822753906,115.78442859649658 131.49606323242188,385.2124605178833 208.94305419921875,432.11840534210205 " fill="#e5e5e5"/>
  </g>
 </g>
</svg>