<?xml version="1.0" ?><!DOCTYPE svg  PUBLIC '-//W3C//DTD SVG 1.1//EN'  'http://www.w3.org/Graphics/SVG/1.1/DTD/svg11.dtd'><svg enable-background="new 0 0 512 512" height="512px" id="Layer_1" version="1.1" viewBox="0 0 512 512" width="512px" xml:space="preserve" xmlns="http://www.w3.org/2000/svg" xmlns:xlink="http://www.w3.org/1999/xlink"><g><path d="M486.5,154.021h-34.555c0.793,2.526,1.223,5.212,1.223,8c0,0.748-0.039,1.486-0.099,2.218   c7.981,1.238,14.098,8.12,14.098,16.449c0,9.205-7.462,16.667-16.667,16.667H27.834c-9.204,0-16.667-7.462-16.667-16.667   c0-9.205,7.463-16.667,16.667-16.667h77.416c-0.05-0.661-0.083-1.326-0.083-2c0-14.728,11.939-26.667,26.667-26.667h186.132   c0.99-8.26,8.011-14.667,16.536-14.667H486.5c9.205,0,16.667,7.462,16.667,16.667C503.167,146.559,495.705,154.021,486.5,154.021z" fill="#D7ECF4"/><path d="M450.835,364.021h-1.017c0.446-2.152,0.683-4.381,0.683-6.666v-3.334c0-18.041-14.625-32.666-32.666-32.666   h-89.337c0.433-1.934,0.669-3.939,0.669-6.002v-0.666c0-15.096-12.237-27.334-27.333-27.334H45.167   c-15.096,0-27.333,12.238-27.333,27.334v0.666c0,15.096,12.237,27.334,27.333,27.334h236.689c-1.307,3.531-2.022,7.35-2.022,11.334   v3.334c0,2.285,0.236,4.514,0.683,6.666H70.167c-10.861,0-19.666,8.805-19.666,19.666s8.805,19.666,19.666,19.666h380.668   c10.861,0,19.666-8.805,19.666-19.666S461.696,364.021,450.835,364.021z" fill="#D7ECF4"/><path d="M112.834,92.354h-50c-4.476,0-8.301,2.76-9.884,6.666H23.487c-8.094,0-14.654,6.562-14.654,14.654   c0,8.094,6.561,14.654,14.654,14.654h68.691c8.09,0,14.646-6.555,14.653-14.641h6.002c5.892,0,10.667-4.776,10.667-10.667   C123.501,97.129,118.726,92.354,112.834,92.354z" fill="#D7ECF4"/><g><line fill="none" stroke="#231F20" stroke-linecap="round" stroke-linejoin="round" stroke-miterlimit="10" stroke-width="3" x1="419.542" x2="419.542" y1="411.771" y2="365.771"/><polyline fill="none" points="    413.833,418.146 419.667,412.312 425.501,418.146   " stroke="#231F20" stroke-linecap="round" stroke-linejoin="round" stroke-miterlimit="10" stroke-width="3"/><polyline fill="none" points="    425.501,360.021 419.667,365.854 413.833,360.021   " stroke="#231F20" stroke-linecap="round" stroke-linejoin="round" stroke-miterlimit="10" stroke-width="3"/><line fill="none" stroke="#231F20" stroke-linecap="round" stroke-linejoin="round" stroke-miterlimit="10" stroke-width="3" x1="439.253" x2="399.415" y1="400.535" y2="377.535"/><polyline fill="none" points="    441.919,408.666 439.784,400.697 447.753,398.562   " stroke="#231F20" stroke-linecap="round" stroke-linejoin="round" stroke-miterlimit="10" stroke-width="3"/><polyline fill="none" points="    397.415,369.5 399.55,377.469 391.581,379.604   " stroke="#231F20" stroke-linecap="round" stroke-linejoin="round" stroke-miterlimit="10" stroke-width="3"/><line fill="none" stroke="#231F20" stroke-linecap="round" stroke-linejoin="round" stroke-miterlimit="10" stroke-width="3" x1="439.376" x2="399.54" y1="377.848" y2="400.848"/><polyline fill="none" points="    447.751,379.605 439.782,377.469 441.919,369.5   " stroke="#231F20" stroke-linecap="round" stroke-linejoin="round" stroke-miterlimit="10" stroke-width="3"/><polyline fill="none" points="    391.581,398.564 399.55,400.699 397.415,408.668   " stroke="#231F20" stroke-linecap="round" stroke-linejoin="round" stroke-miterlimit="10" stroke-width="3"/></g><g><line fill="none" stroke="#231F20" stroke-linecap="round" stroke-linejoin="round" stroke-miterlimit="10" stroke-width="1.6096" x1="400.646" x2="400.646" y1="160.754" y2="136.074"/><polyline fill="none" points="    397.584,164.174 400.713,161.044 403.844,164.174   " stroke="#231F20" stroke-linecap="round" stroke-linejoin="round" stroke-miterlimit="10" stroke-width="1.6096"/><polyline fill="none" points="    403.844,132.989 400.713,136.119 397.584,132.989   " stroke="#231F20" stroke-linecap="round" stroke-linejoin="round" stroke-miterlimit="10" stroke-width="1.6096"/><line fill="none" stroke="#231F20" stroke-linecap="round" stroke-linejoin="round" stroke-miterlimit="10" stroke-width="1.6096" x1="411.221" x2="389.848" y1="154.726" y2="142.386"/><polyline fill="none" points="    412.651,159.088 411.506,154.813 415.781,153.667   " stroke="#231F20" stroke-linecap="round" stroke-linejoin="round" stroke-miterlimit="10" stroke-width="1.6096"/><polyline fill="none" points="    388.774,138.075 389.92,142.35 385.645,143.496   " stroke="#231F20" stroke-linecap="round" stroke-linejoin="round" stroke-miterlimit="10" stroke-width="1.6096"/><line fill="none" stroke="#231F20" stroke-linecap="round" stroke-linejoin="round" stroke-miterlimit="10" stroke-width="1.6096" x1="411.287" x2="389.915" y1="142.553" y2="154.893"/><polyline fill="none" points="    415.781,143.497 411.506,142.35 412.652,138.075   " stroke="#231F20" stroke-linecap="round" stroke-linejoin="round" stroke-miterlimit="10" stroke-width="1.6096"/><polyline fill="none" points="    385.645,153.667 389.92,154.813 388.774,159.089   " stroke="#231F20" stroke-linecap="round" stroke-linejoin="round" stroke-miterlimit="10" stroke-width="1.6096"/></g><g><line fill="none" stroke="#231F20" stroke-linecap="round" stroke-linejoin="round" stroke-miterlimit="10" stroke-width="1.6096" x1="64.979" x2="64.979" y1="363.754" y2="339.074"/><polyline fill="none" points="    61.917,367.174 65.046,364.045 68.177,367.174   " stroke="#231F20" stroke-linecap="round" stroke-linejoin="round" stroke-miterlimit="10" stroke-width="1.6096"/><polyline fill="none" points="    68.177,335.988 65.046,339.119 61.917,335.988   " stroke="#231F20" stroke-linecap="round" stroke-linejoin="round" stroke-miterlimit="10" stroke-width="1.6096"/><line fill="none" stroke="#231F20" stroke-linecap="round" stroke-linejoin="round" stroke-miterlimit="10" stroke-width="1.6096" x1="75.554" x2="54.181" y1="357.727" y2="345.387"/><polyline fill="none" points="    76.983,362.088 75.839,357.812 80.114,356.668   " stroke="#231F20" stroke-linecap="round" stroke-linejoin="round" stroke-miterlimit="10" stroke-width="1.6096"/><polyline fill="none" points="    53.106,341.074 54.253,345.35 49.978,346.496   " stroke="#231F20" stroke-linecap="round" stroke-linejoin="round" stroke-miterlimit="10" stroke-width="1.6096"/><line fill="none" stroke="#231F20" stroke-linecap="round" stroke-linejoin="round" stroke-miterlimit="10" stroke-width="1.6096" x1="75.62" x2="54.247" y1="345.553" y2="357.893"/><polyline fill="none" points="    80.114,346.496 75.839,345.35 76.985,341.074   " stroke="#231F20" stroke-linecap="round" stroke-linejoin="round" stroke-miterlimit="10" stroke-width="1.6096"/><polyline fill="none" points="    49.978,356.668 54.253,357.812 53.106,362.09   " stroke="#231F20" stroke-linecap="round" stroke-linejoin="round" stroke-miterlimit="10" stroke-width="1.6096"/></g><g><line fill="none" stroke="#231F20" stroke-linecap="round" stroke-linejoin="round" stroke-miterlimit="10" stroke-width="3" x1="79.793" x2="79.793" y1="152.771" y2="106.771"/><rect fill="none" height="8.25" stroke="#231F20" stroke-linecap="round" stroke-linejoin="round" stroke-miterlimit="10" stroke-width="3" transform="matrix(-0.7071 -0.7071 0.7071 -0.7071 23.8953 328.1898)" width="8.25" x="75.793" y="155.021"/><rect fill="none" height="8.25" stroke="#231F20" stroke-linecap="round" stroke-linejoin="round" stroke-miterlimit="10" stroke-width="3" transform="matrix(-0.7071 -0.7071 0.7071 -0.7071 64.9959 228.9642)" width="8.25" x="75.793" y="96.896"/><line fill="none" stroke="#231F20" stroke-linecap="round" stroke-linejoin="round" stroke-miterlimit="10" stroke-width="3" x1="99.503" x2="59.666" y1="141.536" y2="118.536"/><rect fill="none" height="8.251" stroke="#231F20" stroke-linecap="round" stroke-linejoin="round" stroke-miterlimit="10" stroke-width="3" transform="matrix(-0.9659 0.2589 -0.2589 -0.9659 244.028 257.095)" width="8.25" x="100.961" y="140.489"/><rect fill="none" height="8.251" stroke="#231F20" stroke-linecap="round" stroke-linejoin="round" stroke-miterlimit="10" stroke-width="3" transform="matrix(-0.9659 0.2589 -0.2589 -0.9659 137.5486 212.9894)" width="8.249" x="50.625" y="111.427"/><line fill="none" stroke="#231F20" stroke-linecap="round" stroke-linejoin="round" stroke-miterlimit="10" stroke-width="3" x1="99.628" x2="59.791" y1="118.849" y2="141.848"/><rect fill="none" height="8.251" stroke="#231F20" stroke-linecap="round" stroke-linejoin="round" stroke-miterlimit="10" stroke-width="3" transform="matrix(-0.2589 0.9659 -0.9659 -0.2589 243.9039 43.9632)" width="8.25" x="100.961" y="111.427"/><rect fill="none" height="8.251" stroke="#231F20" stroke-linecap="round" stroke-linejoin="round" stroke-miterlimit="10" stroke-width="3" transform="matrix(-0.2588 0.9659 -0.9659 -0.2588 208.6053 129.1573)" width="8.249" x="50.624" y="140.489"/></g><g><line fill="none" stroke="#231F20" stroke-linecap="round" stroke-linejoin="round" stroke-miterlimit="10" stroke-width="1.4238" x1="472.524" x2="472.524" y1="354.307" y2="332.475"/><rect fill="none" height="3.917" stroke="#231F20" stroke-linecap="round" stroke-linejoin="round" stroke-miterlimit="10" stroke-width="1.4238" transform="matrix(-0.7071 -0.7071 0.7071 -0.7071 554.0778 944.1706)" width="3.917" x="470.625" y="355.374"/><rect fill="none" height="3.917" stroke="#231F20" stroke-linecap="round" stroke-linejoin="round" stroke-miterlimit="10" stroke-width="1.4238" transform="matrix(-0.7071 -0.7071 0.7071 -0.7071 573.584 897.0784)" width="3.917" x="470.625" y="327.788"/><line fill="none" stroke="#231F20" stroke-linecap="round" stroke-linejoin="round" stroke-miterlimit="10" stroke-width="1.4238" x1="481.878" x2="462.972" y1="348.975" y2="338.059"/><rect fill="none" height="3.917" stroke="#231F20" stroke-linecap="round" stroke-linejoin="round" stroke-miterlimit="10" stroke-width="1.4238" transform="matrix(-0.9659 0.2589 -0.2589 -0.9659 1043.2737 563.4574)" width="3.915" x="482.572" y="348.477"/><rect fill="none" height="3.917" stroke="#231F20" stroke-linecap="round" stroke-linejoin="round" stroke-miterlimit="10" stroke-width="1.4238" transform="matrix(-0.9659 0.2589 -0.2589 -0.9659 992.7358 542.5281)" width="3.915" x="458.681" y="334.684"/><line fill="none" stroke="#231F20" stroke-linecap="round" stroke-linejoin="round" stroke-miterlimit="10" stroke-width="1.4238" x1="481.938" x2="463.032" y1="338.207" y2="349.123"/><rect fill="none" height="3.917" stroke="#231F20" stroke-linecap="round" stroke-linejoin="round" stroke-miterlimit="10" stroke-width="1.4238" transform="matrix(-0.2588 0.9659 -0.9659 -0.2588 935.102 -44.2501)" width="3.917" x="482.57" y="334.684"/><rect fill="none" height="3.915" stroke="#231F20" stroke-linecap="round" stroke-linejoin="round" stroke-miterlimit="10" stroke-width="1.4238" transform="matrix(-0.2589 0.9659 -0.9659 -0.2589 918.3972 -3.7538)" width="3.915" x="458.681" y="348.477"/></g><g><path d="    M458.896,200.877c-5.66-23.781-100.336-35.546-214.683-26.32c-114.346,9.226-205.91,36.018-207.686,60.398    c-0.116-0.49-3.349,13.981-0.492,32.813c2.856,18.832,5.361,28.492,5.398,27.99c5.66,23.779,100.336,35.545,214.682,26.32    c114.347-9.227,205.911-36.02,207.686-60.398c0.057,0.236,1.327-14.128,0.135-28.938    C462.663,216.936,458.916,200.618,458.896,200.877z M101.611,260.303c37.523-11.09,89.592-20.271,147.509-24.944    s110.783-3.959,149.6,0.973c-37.523,11.09-89.592,20.271-147.509,24.944C193.294,265.947,140.427,265.232,101.611,260.303z" fill="#FFFFFF" stroke="#231F20" stroke-linecap="round" stroke-linejoin="round" stroke-miterlimit="10" stroke-width="6"/><path d="M101.611,260.303c0,0-32.921-4.367-43.331-9.044c-12.105-7.049,30.815-37.136,90.191-48.912    c31.27-6.201,108.958-21.499,215.795-15.404c52.36,2.987,48.409,48.562,33.816,46.097c-28.141-4.752-88.048-5.337-139.549-1.183    C194.278,237.041,127.553,245.808,101.611,260.303z" fill="#E5E5E5"/><path d="    M50.418,247.892c5.167,2.456,11.652,4.669,19.293,6.617c38.278,9.762,105.554,12.893,181.5,6.766    c90.478-7.3,166.7-25.6,195.459-44.998" fill="none" stroke="#231F20" stroke-linecap="round" stroke-linejoin="round" stroke-miterlimit="10" stroke-width="6"/><path d="    M412.387,213.04c10.678,1.885,19.896,4.155,27.39,6.777" fill="none" stroke="#231F20" stroke-linecap="round" stroke-linejoin="round" stroke-miterlimit="10" stroke-width="3"/><path d="    M391.987,210.111c4.943,0.569,9.676,1.204,14.181,1.9" fill="none" stroke="#231F20" stroke-linecap="round" stroke-linejoin="round" stroke-miterlimit="10" stroke-width="3"/><path d="    M369.667,208.086c3.142,0.216,6.223,0.454,9.239,0.714" fill="none" stroke="#231F20" stroke-linecap="round" stroke-linejoin="round" stroke-miterlimit="10" stroke-width="3"/><path d="    M398.48,219.615c10.888,1.416,20.647,3.168,29.075,5.229" fill="none" stroke="#231F20" stroke-linecap="round" stroke-linejoin="round" stroke-miterlimit="10" stroke-width="3"/><path d="    M98.375,308.924c-2.431-0.404-4.917-0.844-7.45-1.32" fill="none" stroke="#231F20" stroke-linecap="round" stroke-linejoin="round" stroke-miterlimit="10" stroke-width="3"/><path d="M39.19,267.514l3.27,19.801l1.89,8.402c-0.039-0.484-0.027-0.969,0.009-1.455    c5.477,23.008,97.086,34.393,207.727,25.467c72.854-5.879-40.913,2.818-128.111-19.756    C78.747,288.262,39.19,267.514,39.19,267.514z" fill="#E5E5E5"/><path d="    M135.802,312.314c-8.465,0.168-18.606-0.6-30.119-2.252" fill="none" stroke="#231F20" stroke-linecap="round" stroke-linejoin="round" stroke-miterlimit="10" stroke-width="3"/><path d="    M128.143,304.912c-3.904-0.221-8.062-0.59-12.45-1.102" fill="none" stroke="#231F20" stroke-linecap="round" stroke-linejoin="round" stroke-miterlimit="10" stroke-width="3"/></g></g></svg>